<?xml version="1.0" encoding="utf-8"?>
<!-- Generator: Adobe Illustrator 28.4.1, SVG Export Plug-In . SVG Version: 6.00 Build 0)  -->
<svg version="1.1" id="Layer_1" xmlns="http://www.w3.org/2000/svg" xmlns:xlink="http://www.w3.org/1999/xlink" x="0px" y="0px"
	 viewBox="0 0 260.9 79.4" style="enable-background:new 0 0 260.9 79.4;" xml:space="preserve">
<style type="text/css">
	.st0{fill:#FFFFFF;}
	.st1{fill:#2C3E50;}
</style>
<path class="st0" d="M50.9,11.1H33.7c-5.4,0-10.3,2.9-13,7.5l-8.6,14.9c-2.7,4.6-2.7,10.3,0,15l8.6,14.9c2.7,4.6,7.6,7.5,13,7.5
	h17.2c5.3,0,10.3-2.9,13-7.5l8.6-14.9c2.7-4.6,2.7-10.3,0-15l-8.6-14.9C61.2,14,56.2,11.1,50.9,11.1z"/>
<g>
	<path class="st1" d="M43.1,58.7c-2.5-2.5-7.4-9.4,2.1-18.2l7.9,8.8c0.6,0.7,0.5,1.7-0.1,2.3l-7.7,7.1
		C44.7,59.4,43.7,59.4,43.1,58.7L43.1,58.7z"/>
	<path class="st1" d="M52.7,30.5L52,29.7l-4.2,3.8c-0.8,0.7-1.8,1.1-2.9,1.1h0c-1.1,0-2-0.4-2.7-1.2s-1-1.8-0.9-2.8
		c0.1-1,0.6-2,1.4-2.8l4.1-3.7L46,23.2c-0.3-0.3-0.7-0.5-1.1-0.5c-0.4,0-0.7,0.1-1,0.4l-8.3,7.6c-5.7,5.2-6,14-0.8,19.7l0.2,0.3
		l5.4,5.9c-0.2-0.2-0.3-0.5-0.5-0.7c-0.4-0.7-0.7-1.4-0.9-2.1c0-0.1,0-0.2-0.1-0.2c0-0.1,0-0.2-0.1-0.2c0,0,0,0,0-0.1
		c0-0.2-0.1-0.4-0.1-0.5c0-0.3-0.1-0.6-0.1-0.8c0-0.1,0-0.2,0-0.3c0-0.5,0-1,0-1.4c0-0.2,0-0.5,0.1-0.7l0-0.3c0-0.2,0.1-0.4,0.1-0.6
		c0.3-1.6,1.1-3.2,2-4.5c1-1.4,2.1-2.6,3.3-3.7l0,0l0.1-0.1c0.1-0.1,0.2-0.2,0.3-0.3l8-7.4C53.2,32.1,53.3,31.1,52.7,30.5L52.7,30.5
		L52.7,30.5L52.7,30.5z"/>
	<path class="st1" d="M47.3,24.6l-4.1,3.7c-0.7,0.6-1.1,1.4-1.2,2.3c-0.1,0.9,0.2,1.7,0.7,2.3s1.3,0.9,2.2,1c0.9,0,1.7-0.3,2.4-1
		l4.2-3.8L47.3,24.6L47.3,24.6L47.3,24.6z M45,32.2c-0.2,0-0.4,0-0.5,0c-1.2-0.5-1.2-2.1,0.1-2.4c0.2,0,0.4,0,0.5,0
		C46.4,30.2,46.3,31.9,45,32.2z"/>
</g>
<g>
	<path class="st0" d="M92.2,53.6V24.5h4.3v29.1H92.2z M96.2,46.4v-5.2h0.6l8.7-9.1h5.2l-9.9,10.4h-0.7L96.2,46.4z M105.9,53.6
		l-7.8-10.2l2.9-3l10.1,13.2L105.9,53.6L105.9,53.6z"/>
	<path class="st0" d="M120.4,54.1c-1.4,0-2.6-0.2-3.7-0.8s-2-1.2-2.6-2.2s-1-2.2-1-3.6c0-1.2,0.2-2.2,0.7-3c0.5-0.8,1.1-1.4,1.9-1.9
		s1.7-0.8,2.7-1s2-0.4,3.1-0.5c1.3-0.2,2.3-0.3,3.1-0.4s1.4-0.3,1.7-0.5s0.6-0.6,0.6-1.1V39c0-0.8-0.2-1.5-0.5-2s-0.8-1-1.4-1.3
		s-1.4-0.5-2.3-0.5s-1.7,0.2-2.4,0.4c-0.7,0.3-1.2,0.7-1.7,1.1c-0.4,0.5-0.7,1-0.9,1.5l-4-0.8c0.4-1.3,1-2.4,1.9-3.2
		s1.9-1.5,3.1-1.9s2.5-0.6,3.9-0.6c1,0,1.9,0.1,2.9,0.4s1.9,0.6,2.7,1.2c0.8,0.6,1.5,1.3,2,2.3s0.8,2.2,0.8,3.6v14.4H127v-3h-0.2
		c-0.3,0.6-0.7,1.1-1.2,1.6s-1.2,1-2.1,1.3S121.6,54.1,120.4,54.1L120.4,54.1z M121.3,50.7c1.2,0,2.2-0.2,3-0.7s1.4-1,1.9-1.8
		s0.6-1.5,0.6-2.4v-2.7c-0.1,0.1-0.4,0.3-0.8,0.4s-0.9,0.2-1.4,0.3c-0.5,0.1-1.1,0.2-1.6,0.2c-0.5,0.1-1,0.1-1.4,0.2
		c-0.8,0.1-1.5,0.3-2.2,0.5s-1.2,0.6-1.6,1s-0.6,1-0.6,1.8c0,0.7,0.2,1.2,0.5,1.7c0.3,0.5,0.8,0.8,1.4,1
		C119.8,50.6,120.5,50.7,121.3,50.7L121.3,50.7z"/>
	<path class="st0" d="M142.8,54.1c-1.4,0-2.6-0.2-3.7-0.8s-2-1.2-2.6-2.2s-1-2.2-1-3.6c0-1.2,0.2-2.2,0.7-3s1.1-1.4,1.9-1.9
		s1.7-0.8,2.7-1s2-0.4,3.1-0.5c1.3-0.2,2.3-0.3,3.1-0.4s1.4-0.3,1.7-0.5s0.6-0.6,0.6-1.1V39c0-0.8-0.2-1.5-0.5-2s-0.8-1-1.4-1.3
		s-1.4-0.5-2.3-0.5s-1.7,0.2-2.4,0.4s-1.2,0.7-1.6,1.1s-0.7,1-0.9,1.5l-4-0.8c0.4-1.3,1-2.4,1.9-3.2s1.9-1.5,3.1-1.9
		s2.5-0.6,3.9-0.6c1,0,1.9,0.1,2.9,0.4s1.9,0.6,2.8,1.2s1.5,1.3,2,2.3s0.8,2.2,0.8,3.6v14.4h-4.1v-3h-0.2c-0.3,0.6-0.7,1.1-1.2,1.6
		s-1.2,1-2.1,1.3S143.9,54.1,142.8,54.1L142.8,54.1z M143.7,50.7c1.2,0,2.2-0.2,3-0.7s1.4-1,1.9-1.8s0.6-1.5,0.6-2.4v-2.7
		c-0.1,0.1-0.4,0.3-0.8,0.4s-0.9,0.2-1.4,0.3s-1.1,0.2-1.6,0.2s-1,0.1-1.4,0.2c-0.8,0.1-1.5,0.3-2.2,0.5s-1.2,0.6-1.6,1
		s-0.6,1-0.6,1.8c0,0.7,0.2,1.2,0.5,1.7s0.8,0.8,1.4,1S142.9,50.7,143.7,50.7L143.7,50.7z"/>
	<path class="st0" d="M166.8,54.1c-1.6,0-3-0.2-4.2-0.7s-2.2-1.2-3-2.1s-1.3-2-1.5-3.4l4.1-0.7c0.3,1.1,0.8,2,1.6,2.5
		s1.9,0.8,3.1,0.8c1.4,0,2.4-0.3,3.3-0.8s1.2-1.2,1.2-2.1c0-0.7-0.3-1.3-0.8-1.7s-1.3-0.8-2.3-1l-3.6-0.8c-2-0.5-3.5-1.2-4.5-2.2
		s-1.5-2.3-1.5-3.8c0-1.3,0.4-2.4,1.1-3.4s1.7-1.7,2.9-2.2s2.7-0.8,4.3-0.8s2.9,0.2,4.1,0.7s2.1,1.1,2.8,2s1.2,1.9,1.4,3l-3.9,0.7
		c-0.2-0.8-0.7-1.5-1.4-2.1s-1.7-0.9-2.9-0.9c-1.2,0-2.2,0.3-2.9,0.8s-1.2,1.2-1.2,2c0,0.7,0.3,1.3,0.8,1.7s1.4,0.8,2.5,1l3.5,0.8
		c2,0.5,3.5,1.2,4.5,2.1s1.5,2.2,1.5,3.7c0,1.3-0.4,2.5-1.1,3.5s-1.8,1.8-3.1,2.4S168.5,54.1,166.8,54.1L166.8,54.1z"/>
	<path class="st0" d="M184.4,40.9v12.7h-4.3V24.5h4.2v12.8h-0.7c0.6-1.9,1.6-3.3,2.8-4.2s2.7-1.4,4.4-1.4c1.5,0,2.8,0.3,3.9,0.9
		s2,1.5,2.6,2.8s0.9,2.7,0.9,4.5v13.7H194V40.5c0-1.6-0.4-2.8-1.2-3.7s-1.9-1.3-3.4-1.3c-1,0-1.8,0.2-2.6,0.6s-1.4,1-1.8,1.8
		S184.4,39.7,184.4,40.9z"/>
	<path class="st0" d="M202.9,61.6l0.8-3.5l0.9,0.1c0.7,0.1,1.3,0.2,1.8,0.1s1-0.4,1.4-0.8s0.7-1.1,1-1.9l0.6-1.8l-8.2-21.6h4.6
		l4.3,12.2c0.5,1.3,0.9,2.6,1.2,3.9s0.7,2.6,1,3.9H211c0.4-1.3,0.7-2.6,1.1-3.9s0.8-2.6,1.2-3.9l4.3-12.2h4.5l-9.4,24.7
		c-0.4,1.1-1,2.1-1.6,2.8s-1.4,1.3-2.2,1.7s-1.9,0.6-3,0.6c-0.6,0-1.2,0-1.7-0.1S203.3,61.6,202.9,61.6L202.9,61.6z"/>
</g>
</svg>
