<?xml version="1.0" encoding="UTF-8"?>
<svg id="Layer_1" data-name="Layer 1" xmlns="http://www.w3.org/2000/svg" viewBox="0 0 260.87 79.36">
  <defs>
    <style>
      .cls-1 {
        fill: #7500c1;
      }

      .cls-1, .cls-2 {
        stroke-width: 0px;
      }

      .cls-2 {
        fill: #fff;
      }
    </style>
  </defs>
  <path class="cls-2" d="M50.87,11.11h-17.16c-5.35,0-10.3,2.86-12.98,7.49l-8.58,14.86c-2.68,4.64-2.68,10.35,0,14.99l8.58,14.86c2.68,4.64,7.63,7.49,12.98,7.49h17.16c5.35,0,10.3-2.86,12.98-7.49l8.58-14.86c2.68-4.64,2.68-10.35,0-14.99l-8.58-14.86c-2.68-4.64-7.63-7.49-12.98-7.49Z"/>
  <g>
    <path class="cls-1" d="M43.08,58.74c-2.52-2.51-7.43-9.35,2.1-18.16l7.94,8.79c.59.66.55,1.67-.1,2.28l-7.68,7.13c-.64.6-1.64.58-2.26-.04h0Z"/>
    <path class="cls-1" d="M52.7,30.46l-.71-.78-4.16,3.75c-.81.73-1.84,1.13-2.9,1.13h-.02c-1.07,0-2.04-.43-2.73-1.2s-1.01-1.77-.9-2.84c.11-1.05.61-2.04,1.44-2.78l4.11-3.7-.79-.87c-.3-.32-.71-.49-1.12-.49-.37,0-.73.13-1.03.4l-8.34,7.65c-5.67,5.2-6.03,14.01-.84,19.67l.25.28,5.37,5.86c-.16-.24-.31-.49-.45-.74-.37-.67-.66-1.39-.87-2.12-.03-.07-.04-.15-.06-.22-.03-.07-.04-.15-.06-.22,0-.03-.02-.05-.02-.07-.04-.19-.09-.37-.12-.54-.05-.29-.09-.56-.12-.85,0-.08-.02-.17-.02-.26-.03-.47-.03-.95.03-1.41.02-.22.04-.46.08-.67l.04-.26c.03-.21.09-.4.12-.61.34-1.63,1.09-3.16,2.02-4.53.95-1.37,2.1-2.57,3.31-3.69h0l.06-.06c.1-.09.2-.19.3-.28l8.03-7.37c.62-.57.66-1.53.09-2.14h0v-.04Z"/>
    <path class="cls-1" d="M47.33,24.6l-4.12,3.7c-.68.61-1.11,1.43-1.2,2.3-.08.86.17,1.66.71,2.26s1.32.94,2.18.95c.87,0,1.73-.33,2.41-.95l4.16-3.75-4.16-4.53h0ZM45.05,32.16c-.18.04-.37.04-.54-.03-1.25-.45-1.15-2.11.13-2.41.18-.04.37-.04.54.03,1.25.45,1.15,2.11-.13,2.41Z"/>
  </g>
  <g>
    <path class="cls-2" d="M92.22,53.64v-29.1h4.28v29.1h-4.28ZM96.16,46.37v-5.18h.64l8.65-9.12h5.16l-9.86,10.43h-.7l-3.89,3.87ZM105.95,53.64l-7.75-10.2,2.93-2.99,10.08,13.18h-5.25Z"/>
    <path class="cls-2" d="M120.4,54.09c-1.38,0-2.62-.25-3.73-.75-1.11-.5-1.98-1.24-2.63-2.22s-.97-2.17-.97-3.59c0-1.22.24-2.23.71-3.02.48-.79,1.11-1.41,1.9-1.87.79-.46,1.69-.8,2.69-1.04s2.01-.41,3.06-.53c1.29-.16,2.33-.29,3.12-.39.79-.1,1.37-.27,1.74-.49s.56-.59.56-1.09v-.12c0-.79-.16-1.47-.47-2.02s-.78-.98-1.41-1.28-1.39-.45-2.3-.45-1.73.15-2.4.44c-.68.29-1.23.67-1.65,1.13-.42.46-.72.95-.89,1.47l-4.04-.8c.4-1.32,1.04-2.39,1.92-3.23s1.92-1.46,3.13-1.88,2.51-.62,3.89-.62c.96,0,1.94.12,2.94.35s1.91.63,2.75,1.19,1.51,1.32,2.02,2.29.76,2.17.76,3.63v14.41h-4.14v-2.97h-.18c-.29.56-.7,1.1-1.25,1.62s-1.24.95-2.09,1.29c-.85.34-1.86.51-3.05.51ZM121.34,50.67c1.18,0,2.19-.23,3.01-.68s1.45-1.05,1.88-1.8.64-1.54.64-2.38v-2.71c-.14.14-.42.27-.84.39s-.89.22-1.43.32c-.53.1-1.06.18-1.58.25-.52.07-.98.13-1.37.19-.78.1-1.51.28-2.18.52-.67.24-1.2.59-1.6,1.04-.4.45-.6,1.04-.6,1.79,0,.68.17,1.24.52,1.7.34.46.82.8,1.44,1.04.61.23,1.31.35,2.11.35Z"/>
    <path class="cls-2" d="M142.76,54.09c-1.38,0-2.62-.25-3.73-.75s-1.98-1.24-2.63-2.22-.97-2.17-.97-3.59c0-1.22.24-2.23.71-3.02s1.11-1.41,1.9-1.87,1.69-.8,2.69-1.04,2.01-.41,3.06-.53c1.29-.16,2.33-.29,3.12-.39s1.37-.27,1.74-.49.56-.59.56-1.09v-.12c0-.79-.16-1.47-.47-2.02s-.78-.98-1.41-1.28-1.39-.45-2.3-.45-1.73.15-2.4.44-1.23.67-1.65,1.13-.72.95-.89,1.47l-4.04-.8c.4-1.32,1.04-2.39,1.92-3.23s1.92-1.46,3.13-1.88,2.51-.62,3.89-.62c.96,0,1.94.12,2.94.35s1.91.63,2.75,1.19,1.51,1.32,2.02,2.29.76,2.17.76,3.63v14.41h-4.14v-2.97h-.18c-.29.56-.7,1.1-1.25,1.62s-1.24.95-2.09,1.29-1.86.51-3.05.51ZM143.7,50.67c1.18,0,2.19-.23,3.01-.68s1.45-1.05,1.88-1.8.64-1.54.64-2.38v-2.71c-.14.14-.42.27-.84.39s-.89.22-1.43.32-1.06.18-1.58.25-.98.13-1.37.19c-.78.1-1.51.28-2.18.52s-1.2.59-1.6,1.04-.6,1.04-.6,1.79c0,.68.17,1.24.52,1.7s.82.8,1.44,1.04,1.32.35,2.11.35Z"/>
    <path class="cls-2" d="M166.79,54.11c-1.59,0-3-.23-4.24-.7s-2.25-1.16-3.03-2.08-1.29-2.04-1.52-3.37l4.06-.66c.26,1.13.79,1.98,1.59,2.53s1.85.83,3.13.83c1.37,0,2.45-.28,3.26-.85s1.21-1.25,1.21-2.06c0-.7-.26-1.28-.77-1.73s-1.27-.78-2.28-1.01l-3.63-.8c-2-.46-3.5-1.18-4.49-2.18s-1.48-2.28-1.48-3.84c0-1.29.35-2.42,1.06-3.38s1.69-1.71,2.94-2.25,2.69-.8,4.32-.8,2.93.24,4.07.71,2.06,1.14,2.75,2,1.17,1.86,1.42,3.01l-3.89.66c-.21-.82-.66-1.53-1.35-2.13s-1.67-.9-2.95-.9c-1.18,0-2.17.27-2.94.8s-1.16,1.22-1.16,2.05c0,.72.27,1.3.8,1.74s1.37.79,2.5,1.05l3.5.78c2.03.46,3.53,1.17,4.5,2.13s1.46,2.21,1.46,3.73c0,1.32-.38,2.48-1.13,3.49s-1.8,1.8-3.12,2.36-2.86.85-4.59.85Z"/>
    <path class="cls-2" d="M184.37,40.94v12.7h-4.28v-29.1h4.24v12.83h-.66c.64-1.93,1.56-3.34,2.77-4.25s2.68-1.36,4.39-1.36c1.47,0,2.76.31,3.88.94s1.99,1.55,2.62,2.76.95,2.72.95,4.52v13.65h-4.28v-13.12c0-1.59-.41-2.82-1.22-3.7s-1.93-1.32-3.35-1.32c-.96,0-1.83.21-2.6.62s-1.37,1.03-1.81,1.84-.65,1.8-.65,2.99Z"/>
    <path class="cls-2" d="M202.94,61.57l.82-3.52.88.12c.66.14,1.26.16,1.8.06s1-.37,1.4-.81.72-1.08.97-1.94l.57-1.8-8.22-21.6h4.59l4.28,12.17c.47,1.3.87,2.6,1.19,3.9s.67,2.59,1.04,3.88h-1.29c.36-1.29.72-2.58,1.07-3.89s.75-2.6,1.21-3.89l4.34-12.17h4.53l-9.45,24.73c-.43,1.12-.96,2.06-1.59,2.82s-1.38,1.33-2.24,1.72-1.85.58-2.97.58c-.61,0-1.17-.04-1.69-.12s-.92-.16-1.22-.23Z"/>
  </g>
</svg>